<mxfile host="app.diagrams.net" agent="Mozilla/5.0 (Windows NT 10.0; Win64; x64) AppleWebKit/537.36 (KHTML, like Gecko) Chrome/136.0.0.0 Safari/537.36 Edg/136.0.0.0" version="27.0.1">
  <diagram name="第 1 页" id="zOPOcJ6bVxZYPSeWJW3D">
    <mxGraphModel dx="931" dy="515" grid="1" gridSize="10" guides="1" tooltips="1" connect="1" arrows="1" fold="1" page="1" pageScale="1" pageWidth="827" pageHeight="1169" math="0" shadow="0">
      <root>
        <mxCell id="0" />
        <mxCell id="1" parent="0" />
        <mxCell id="Emf_jcTMhuAK1DKgf8AR-7" style="rounded=0;orthogonalLoop=1;jettySize=auto;html=1;exitX=0.9;exitY=0.5;exitDx=0;exitDy=0;exitPerimeter=0;entryX=0;entryY=0.5;entryDx=0;entryDy=0;" edge="1" parent="1" source="Emf_jcTMhuAK1DKgf8AR-2" target="Emf_jcTMhuAK1DKgf8AR-5">
          <mxGeometry relative="1" as="geometry" />
        </mxCell>
        <mxCell id="Emf_jcTMhuAK1DKgf8AR-12" style="rounded=0;orthogonalLoop=1;jettySize=auto;html=1;exitX=0.9;exitY=0.5;exitDx=0;exitDy=0;exitPerimeter=0;entryX=0;entryY=0.5;entryDx=0;entryDy=0;" edge="1" parent="1" source="Emf_jcTMhuAK1DKgf8AR-2" target="Emf_jcTMhuAK1DKgf8AR-8">
          <mxGeometry relative="1" as="geometry" />
        </mxCell>
        <mxCell id="Emf_jcTMhuAK1DKgf8AR-13" style="rounded=0;orthogonalLoop=1;jettySize=auto;html=1;exitX=0.9;exitY=0.5;exitDx=0;exitDy=0;exitPerimeter=0;entryX=0;entryY=0.5;entryDx=0;entryDy=0;" edge="1" parent="1" source="Emf_jcTMhuAK1DKgf8AR-2" target="Emf_jcTMhuAK1DKgf8AR-9">
          <mxGeometry relative="1" as="geometry" />
        </mxCell>
        <mxCell id="Emf_jcTMhuAK1DKgf8AR-14" style="rounded=0;orthogonalLoop=1;jettySize=auto;html=1;exitX=0.9;exitY=0.5;exitDx=0;exitDy=0;exitPerimeter=0;entryX=0;entryY=0.5;entryDx=0;entryDy=0;" edge="1" parent="1" source="Emf_jcTMhuAK1DKgf8AR-2" target="Emf_jcTMhuAK1DKgf8AR-10">
          <mxGeometry relative="1" as="geometry" />
        </mxCell>
        <mxCell id="Emf_jcTMhuAK1DKgf8AR-15" style="rounded=0;orthogonalLoop=1;jettySize=auto;html=1;exitX=0.9;exitY=0.5;exitDx=0;exitDy=0;exitPerimeter=0;entryX=0;entryY=0.5;entryDx=0;entryDy=0;" edge="1" parent="1" source="Emf_jcTMhuAK1DKgf8AR-2" target="Emf_jcTMhuAK1DKgf8AR-11">
          <mxGeometry relative="1" as="geometry" />
        </mxCell>
        <mxCell id="Emf_jcTMhuAK1DKgf8AR-2" value="" style="shape=actor;whiteSpace=wrap;html=1;" vertex="1" parent="1">
          <mxGeometry x="130" y="410" width="40" height="60" as="geometry" />
        </mxCell>
        <mxCell id="Emf_jcTMhuAK1DKgf8AR-3" value="&lt;font style=&quot;font-size: 16px;&quot; face=&quot;Times New Roman&quot;&gt;用户&lt;/font&gt;" style="text;html=1;align=center;verticalAlign=middle;whiteSpace=wrap;rounded=0;" vertex="1" parent="1">
          <mxGeometry x="120" y="475" width="60" height="30" as="geometry" />
        </mxCell>
        <mxCell id="Emf_jcTMhuAK1DKgf8AR-5" value="首页" style="ellipse;whiteSpace=wrap;html=1;fontSize=16;fontFamily=Times New Roman;" vertex="1" parent="1">
          <mxGeometry x="260" y="255" width="80" height="50" as="geometry" />
        </mxCell>
        <mxCell id="Emf_jcTMhuAK1DKgf8AR-8" value="新闻信息" style="ellipse;whiteSpace=wrap;html=1;fontSize=16;fontFamily=Times New Roman;" vertex="1" parent="1">
          <mxGeometry x="260" y="325" width="80" height="50" as="geometry" />
        </mxCell>
        <mxCell id="Emf_jcTMhuAK1DKgf8AR-9" value="新闻评论" style="ellipse;whiteSpace=wrap;html=1;fontSize=16;fontFamily=Times New Roman;" vertex="1" parent="1">
          <mxGeometry x="260" y="395" width="80" height="50" as="geometry" />
        </mxCell>
        <mxCell id="Emf_jcTMhuAK1DKgf8AR-10" value="新闻收藏" style="ellipse;whiteSpace=wrap;html=1;fontSize=16;fontFamily=Times New Roman;" vertex="1" parent="1">
          <mxGeometry x="260" y="465" width="80" height="50" as="geometry" />
        </mxCell>
        <mxCell id="Emf_jcTMhuAK1DKgf8AR-11" value="我的" style="ellipse;whiteSpace=wrap;html=1;fontSize=16;fontFamily=Times New Roman;" vertex="1" parent="1">
          <mxGeometry x="260" y="535" width="80" height="50" as="geometry" />
        </mxCell>
      </root>
    </mxGraphModel>
  </diagram>
</mxfile>
